<?xml version="1.0" encoding="UTF-8" standalone="no"?>
<svg
   xmlns:dc="http://purl.org/dc/elements/1.1/"
   xmlns:cc="http://creativecommons.org/ns#"
   xmlns:rdf="http://www.w3.org/1999/02/22-rdf-syntax-ns#"
   xmlns:svg="http://www.w3.org/2000/svg"
   xmlns="http://www.w3.org/2000/svg"
   viewBox="0 0 2829.3333 2829.3333"
   height="2829.3333"
   width="2829.3333"
   xml:space="preserve"
   id="svg2"
   version="1.1"><metadata
     id="metadata8"><rdf:RDF><cc:Work
         rdf:about=""><dc:format>image/svg+xml</dc:format><dc:type
           rdf:resource="http://purl.org/dc/dcmitype/StillImage" /></cc:Work></rdf:RDF></metadata><defs
     id="defs6" /><g
     transform="matrix(1.3333333,0,0,-1.3333333,0,2829.3333)"
     id="g10"><g
       transform="scale(0.1)"
       id="g12"><g
         transform="scale(1.23766)"
         id="g14"><path
           id="path16"
           style="fill:#79161b;fill-opacity:1;fill-rule:nonzero;stroke:none"
           d="M 839.77,12789.6 4237.62,4361.12 14770.9,5560.81 16300,12605 839.77,12789.6" /></g><g
         transform="scale(1.12925)"
         id="g18"><path
           id="path20"
           style="fill:#fcfcd2;fill-opacity:1;fill-rule:nonzero;stroke:none"
           d="M 2635.7,12962.4 5638.83,5747.64 14948.6,6774.61 16300,12804.4 2635.7,12962.4" /></g><g
         transform="scale(1.21526)"
         id="g22"><path
           id="path24"
           style="fill:#d82724;fill-opacity:1;fill-rule:nonzero;stroke:none"
           d="M 1295.47,12764.9 4593.17,4731.26 14816,5874.72 16300,12589 1295.47,12764.9" /></g><g
         transform="scale(1.15476)"
         id="g26"><path
           id="path28"
           style="fill:#79161b;fill-opacity:1;fill-rule:nonzero;stroke:none"
           d="M 2300.22,12849.3 5377.1,5613.46 14915.5,6643.37 16300,12690.9 2300.22,12849.3" /></g><g
         transform="scale(1.13211)"
         id="g30"><path
           id="path32"
           style="fill:#fcfcd2;fill-opacity:1;fill-rule:nonzero;stroke:none"
           d="M 2763.75,12825.8 5738.74,5979.81 14961.3,6954.27 16300,12675.9 2763.75,12825.8" /></g><g
         transform="scale(1.13211)"
         id="g34"><path
           id="path36"
           style="fill:#fcfcd2;fill-opacity:1;fill-rule:nonzero;stroke:none"
           d="M 2763.75,12825.8 5738.74,5979.81 14961.3,6954.27 16300,12675.9 2763.75,12825.8" /></g><g
         transform="scale(1.13211)"
         id="g38"><path
           id="path40"
           style="fill:#d1cdad;fill-opacity:1;fill-rule:nonzero;stroke:none"
           d="m 3491.53,12368.8 12703.67,-140.7 104.8,447.8 -13536.25,149.9 2974.99,-6845.99 505.97,53.44 -2753.18,6335.55" /></g><g
         transform="scale(1.19881)"
         id="g42"><path
           id="path44"
           style="fill:#fddf03;fill-opacity:1;fill-rule:nonzero;stroke:none"
           d="m 1487.15,12657.9 c -35.47,85.8 5.76,183.6 91.12,219.1 85.84,35 184.13,-5.8 219.13,-91.6 35,-85.8 -5.76,-183.7 -91.59,-219.1 -20.61,-8.7 -42.19,-12.5 -63.76,-12.5 -65.69,0 -128.51,39.3 -154.9,104.1 z m 1123.99,-118 c -92.56,1.4 -166.41,77.7 -165.44,170.2 1.43,92.5 77.68,166.9 170.21,165.4 93.05,-1.4 166.87,-77.6 165.44,-170.2 -0.96,-92 -76.23,-165.4 -167.82,-165.4 z m 1198.76,-17.3 c -92.54,1.5 -166.86,77.7 -165.44,170.3 1.43,93 77.69,166.8 170.22,165.4 92.55,-1.4 166.87,-77.7 165.44,-170.2 -1.43,-91.6 -76.23,-165.5 -167.83,-165.5 z m 1198.78,-17.2 c -93.06,1.4 -166.88,77.7 -165.45,170.2 1.43,93 77.69,166.9 170.22,165.4 92.55,-0.9 166.86,-77.2 165.44,-170.2 -1.43,-91.6 -76.24,-165.4 -167.84,-165.4 z m 1198.76,-16.8 c -93.04,1.4 -166.87,77.2 -165.9,170.2 1.42,92.5 77.65,166.4 170.68,165.4 92.55,-1.4 166.4,-77.6 164.97,-170.2 -0.97,-92 -75.76,-165.4 -167.37,-165.4 z m 1198.28,-17.3 c -92.56,1.5 -166.38,77.7 -165.42,170.2 1.42,92.6 77.66,166.9 170.22,165.5 92.55,-1.5 166.86,-77.7 165.43,-170.3 -1.45,-92 -76.25,-165.4 -167.82,-165.4 z m 1310.51,-17.2 c -92.51,1.4 -166.83,77.6 -165.42,170.2 1.42,92.5 77.67,166.9 170.26,165.4 92.51,-1.4 166.83,-77.7 165.41,-170.2 -1.42,-92.1 -76.24,-165.4 -167.83,-165.4 z m 1230.88,-17.3 c -93,1.4 -166.91,77.7 -165.41,170.2 1.42,92.6 77.66,166.9 170.17,165.4 92.63,-1.4 166.93,-77.1 165.53,-170.2 -1.5,-91.6 -76.4,-165.4 -167.86,-165.4 z m 1206.79,-16.8 c -93.1,1 -166.9,77.2 -165.9,169.8 1.4,93 77.6,166.8 170.7,165.9 92.5,-1.5 166.4,-77.7 164.9,-170.7 -1,-91.6 -75.8,-165.5 -167.3,-165.5 z m 1142.3,-17.2 c -92.5,0.9 -166.3,77.1 -165.4,170.2 1.4,92.5 77.6,166.4 170.2,165.4 92.5,-1.4 166.9,-77.7 165.4,-170.2 -1.4,-92.1 -76.2,-165.4 -167.8,-165.4 z m 1230.7,-17.3 c -92.5,1.4 -166.8,77.7 -165.4,170.2 1.4,92.6 77.7,166.9 170.3,165.4 92.5,-1.4 166.8,-77.6 165.4,-170.2 -1.4,-92.1 -76.3,-165.4 -167.9,-165.4 z m 1342.7,-17.3 c -92.6,1.5 -166.9,77.7 -165.4,170.3 1.4,92.5 77.1,166.8 170.1,165.4 92.6,-1.5 166.5,-77.7 165.5,-170.2 -1.5,-92.1 -76.2,-165.5 -167.8,-165.5 z m 1258.7,-17.2 c -92.5,1.4 -166.4,77.6 -165,170.2 1,93 77.3,166.9 170.3,165.4 92.6,-1.4 166.4,-77.2 165,-170.2 -1,-91.6 -76.3,-165.4 -167.9,-165.4 z m -203.7,-820.5 c -90.1,21.1 -146.2,111.3 -125.1,201.4 21.6,90.6 111.7,146.3 201.9,125.2 90.1,-21.1 146.2,-111.3 125.1,-201.4 -18.2,-77.7 -87.3,-129.5 -163,-129.5 -12.9,0 -25.9,1.4 -38.9,4.3 z m -13878.5,18.7 c -35,85.4 5.77,183.7 91.6,218.7 85.83,35.5 184.13,-5.8 219.13,-91.1 35,-85.8 -5.76,-184.2 -91.6,-219.2 -20.6,-8.6 -42.19,-12.4 -63.75,-12.4 -65.7,0 -128.52,38.8 -155.38,104 z m 13605.3,-1185.8 c -90.7,21.1 -146.4,111.2 -125.2,201.4 21.1,90.6 111.2,146.3 201.4,125.2 90.6,-21.2 146.2,-111.3 125.1,-201.4 -18.2,-77.7 -86.7,-129.5 -163,-129.5 -13,0 -25.9,1.4 -38.3,4.3 z m -13127.93,76.7 c -35.01,85.8 5.75,183.7 91.59,219.2 85.83,35 183.66,-5.8 219.12,-91.6 35.01,-85.9 -5.76,-183.7 -91.58,-219.2 -20.62,-8.6 -42.2,-12.4 -63.77,-12.4 -65.69,0 -128.51,39.3 -155.36,104 z m 441.7,-1108.6 c -35.01,85.36 5.75,183.67 91.59,218.67 85.83,35.47 183.65,-5.75 219.12,-91.12 35,-85.82 -5.76,-184.1 -91.59,-219.13 -20.6,-8.68 -42.67,-12.44 -63.75,-12.44 -66.2,0 -128.52,38.79 -155.37,104.02 z M 15377.5,9196.29 c -90.1,21.1 -146.2,111.27 -125.1,201.39 21.1,90.63 111.7,146.25 201.8,125.14 90.2,-21.09 146.3,-111.23 125.2,-201.41 -18.2,-77.66 -87.3,-129.88 -163.5,-129.88 -12.5,0 -25.4,1.92 -38.4,4.76 z M 3436.68,8222.41 c -35.01,85.83 5.76,183.68 91.59,219.13 85.84,35.03 183.66,-5.75 219.13,-91.59 35,-85.84 -5.76,-183.68 -91.6,-219.14 -20.6,-8.59 -42.18,-12.42 -63.75,-12.42 -65.7,0 -128.51,39.28 -155.37,104.02 z M 15104.2,8029.13 c -90.6,21.1 -146.3,111.28 -125.2,201.45 21.1,90.59 111.3,146.23 201.5,125.12 90.6,-21.1 146.2,-111.19 125.1,-201.36 -18.2,-77.66 -86.8,-129.97 -163,-129.97 -13,0 -25.9,1.43 -38.4,4.76 z M 3860.24,7113.81 c -34.99,85.33 5.76,183.68 91.6,218.63 85.83,35.45 183.65,-5.76 219.12,-91.09 35,-85.84 -5.75,-184.18 -91.6,-219.13 -20.59,-8.68 -42.65,-12.52 -63.74,-12.52 -65.7,0 -128.52,38.88 -155.38,104.11 z M 14830.4,6862.06 c -90.1,21.1 -146.3,111.19 -125.1,201.36 21.1,90.68 111.2,146.32 201.8,125.21 90.2,-21.1 146.2,-111.28 124.7,-201.45 -17.7,-77.66 -86.8,-129.96 -163.1,-129.96 -12.4,0 -25.4,1.5 -38.3,4.84 z m -452.1,-743.74 c -10.1,92.09 56.5,175 148.6,185.1 92,10.09 175,-56.14 185.1,-148.15 10,-92.59 -56.1,-175.5 -148.2,-185.6 -6.3,-0.5 -12.5,-0.92 -18.7,-0.92 -84.4,0 -157.2,63.73 -166.8,149.57 z M 4331.75,6004.71 c -35,85.83 5.77,183.6 91.61,219.13 85.83,34.95 183.64,-5.76 219.11,-91.59 35.01,-85.84 -5.76,-183.68 -91.58,-219.14 -21.1,-8.67 -42.66,-12.51 -63.76,-12.51 -65.7,0 -128.51,39.37 -155.38,104.11 z m 8711.55,-78.16 c -10.5,92.5 56.1,175.5 148.2,185.51 92,10.1 175,-56.56 185,-148.65 10.1,-92 -56,-175 -148.1,-185.01 -6.3,-1 -12.5,-1 -18.7,-1 -84.4,0 -157.3,63.31 -166.4,149.15 z m -1191.5,-131.39 c -10.6,92.01 56,175.01 148.1,185.52 92,10.1 175,-56.56 185,-148.65 10.6,-92 -56,-175 -148.1,-185.09 -6.2,-0.92 -12.5,-0.92 -18.7,-0.92 -84.4,0 -157.3,63.31 -166.3,149.14 z m -1191.6,-131.38 c -10.6,92.01 56,175.01 148.1,185.1 92.1,10.01 175,-56.14 185.1,-148.23 10.5,-92.5 -56.1,-175 -148.1,-185.51 -6.3,-0.5 -12.6,-1 -18.8,-1 -84.3,0 -156.8,63.81 -166.3,149.64 z M 9468.56,5531.9 c -10.09,92.51 56.14,175.51 148.15,185.52 92.59,10.09 175.08,-56.06 185.6,-148.65 10.09,-92 -56.56,-175 -148.65,-185.01 -6.26,-0.5 -12.51,-1 -18.69,-1 -84.41,0 -156.82,63.31 -166.41,149.14 z M 8276.98,5400.52 c -10.07,92.1 56.09,175.01 148.21,185.52 92.51,10.09 175.42,-56.56 185.52,-148.65 10.09,-92 -56.56,-175 -148.65,-185.1 -6.26,-0.91 -12.43,-0.91 -18.69,-0.91 -84.41,0 -156.79,63.31 -166.39,149.14 z M 7085.39,5269.14 c -10.06,92.01 56.13,175.01 148.19,185.02 92.53,10.09 175.48,-56.06 185.58,-148.15 10.07,-92.51 -56.59,-175 -148.66,-185.51 -6.22,-0.5 -12.47,-1.01 -18.71,-1.01 -84.37,0 -156.79,63.82 -166.4,149.65 z M 5893.85,5137.76 c -10.07,92.01 56.09,175.01 148.62,185.1 92.08,10.01 175.04,-56.14 185.11,-148.64 10.06,-92.1 -56.1,-175.1 -148.66,-185.11 -6.22,-0.49 -12.48,-1 -18.7,-1 -84.38,0 -156.8,63.32 -166.37,149.65 z M 4702.26,5005.88 c -10.06,92.09 56.1,175.01 148.65,185.52 92.06,10.09 175.02,-56.56 185.08,-148.56 10.07,-92.1 -56.09,-175.1 -148.15,-185.11 -6.72,-1 -12.96,-1 -18.71,-1 -84.88,0 -157.29,63.32 -166.87,149.15" /></g></g></g></svg>