<?xml version="1.0" encoding="UTF-8" standalone="no"?>
<svg
   xmlns:dc="http://purl.org/dc/elements/1.1/"
   xmlns:cc="http://creativecommons.org/ns#"
   xmlns:rdf="http://www.w3.org/1999/02/22-rdf-syntax-ns#"
   xmlns:svg="http://www.w3.org/2000/svg"
   xmlns="http://www.w3.org/2000/svg"
   viewBox="0 0 2829.3333 2829.3333"
   height="2829.3333"
   width="2829.3333"
   xml:space="preserve"
   id="svg2"
   version="1.1"><metadata
     id="metadata8"><rdf:RDF><cc:Work
         rdf:about=""><dc:format>image/svg+xml</dc:format><dc:type
           rdf:resource="http://purl.org/dc/dcmitype/StillImage" /></cc:Work></rdf:RDF></metadata><defs
     id="defs6" /><g
     transform="matrix(1.3333333,0,0,-1.3333333,0,2829.3333)"
     id="g10"><g
       transform="scale(0.1)"
       id="g12"><g
         transform="scale(1.17128)"
         id="g14"><path
           id="path16"
           style="fill:#48812f;fill-opacity:1;fill-rule:nonzero;stroke:none"
           d="M 16300,2191.54 H 1811.16 V 15931.2 H 16300 V 2191.54" /></g><g
         transform="scale(1.15382)"
         id="g18"><path
           id="path20"
           style="fill:#61ae32;fill-opacity:1;fill-rule:nonzero;stroke:none"
           d="M 16300,2463.81 H 2085.18 V 15933.1 H 16300 V 2463.81" /></g><g
         transform="scale(1.09868)"
         id="g22"><path
           id="path24"
           style="fill:#48812f;fill-opacity:1;fill-rule:nonzero;stroke:none"
           d="M 16300,3288.76 H 3007.9 V 16031.5 H 16300 V 3288.76" /></g><g
         transform="scale(1.07929)"
         id="g26"><path
           id="path28"
           style="fill:#fcfcd2;fill-opacity:1;fill-rule:nonzero;stroke:none"
           d="M 16300,3628.57 H 3354.69 V 16038.8 H 16300 V 3628.57" /></g><g
         transform="scale(1.07929)"
         id="g30"><path
           id="path32"
           style="fill:#e3dfbc;fill-opacity:1;fill-rule:nonzero;stroke:none"
           d="M 16300,3628.57 H 3354.69 V 16038.8 L 9827.35,9833.65 16300,3628.57" /></g><g
         transform="scale(1.13964)"
         id="g34"><path
           id="path36"
           style="fill:#fddf03;fill-opacity:1;fill-rule:nonzero;stroke:none"
           d="m 3385.21,15771.1 c 0,141.4 114.24,256.4 256.3,256.4 141.35,0 256.3,-115 256.3,-256.4 0,-141.3 -114.95,-256.3 -256.3,-256.3 -142.06,0 -256.3,115 -256.3,256.3 z m 1830.73,0 c 0,141.4 114.25,256.4 256.31,256.4 141.34,0 256.3,-115 256.3,-256.4 0,-141.3 -114.96,-256.3 -256.3,-256.3 -142.06,0 -256.31,115 -256.31,256.3 z m 1830.74,0 c 0,141.4 114.25,256.4 256.31,256.4 141.35,0 256.31,-115 256.31,-256.4 0,-141.3 -114.96,-256.3 -256.31,-256.3 -142.06,0 -256.31,115 -256.31,256.3 z m 1830.74,0 c 0,141.4 114.25,256.4 256.31,256.4 141.36,0 256.31,-115 256.31,-256.4 0,-141.3 -114.95,-256.3 -256.31,-256.3 -142.06,0 -256.31,115 -256.31,256.3 z m 1830.78,0 c 0,141.4 114.2,256.4 256.3,256.4 141.3,0 256.3,-115 256.3,-256.4 0,-141.3 -115,-256.3 -256.3,-256.3 -142.1,0 -256.3,115 -256.3,256.3 z m 1830.7,0 c 0,141.4 114.3,256.4 256.3,256.4 141.4,0 256.3,-115 256.3,-256.4 0,-141.3 -114.9,-256.3 -256.3,-256.3 -142,0 -256.3,115 -256.3,256.3 z m 1830.8,0 c 0,141.4 114.2,256.4 256.3,256.4 141.3,0 256.3,-115 256.3,-256.4 0,-141.3 -115,-256.3 -256.3,-256.3 -142.1,0 -256.3,115 -256.3,256.3 z m 1417.7,-413 c 0,142.1 114.9,256.3 256.3,256.3 141.3,0 256.3,-114.2 256.3,-256.3 0,-141.3 -115,-256.3 -256.3,-256.3 -141.4,0 -256.3,115 -256.3,256.3 z M 2313.87,15011.7 c 0,141.4 114.96,256.3 256.3,256.3 141.32,0 256.31,-114.9 256.31,-256.3 0,-142 -114.99,-256.3 -256.31,-256.3 -141.34,0 -256.3,114.3 -256.3,256.3 z M 15787.4,13527.4 c 0,142 114.9,256.3 256.3,256.3 141.3,0 256.3,-114.3 256.3,-256.3 0,-141.3 -115,-256.3 -256.3,-256.3 -141.4,0 -256.3,115 -256.3,256.3 z M 2313.87,13181 c 0,141.4 114.96,256.3 256.3,256.3 141.32,0 256.31,-114.9 256.31,-256.3 0,-142.1 -114.99,-256.3 -256.31,-256.3 -141.34,0 -256.3,114.2 -256.3,256.3 z M 15787.4,11696.6 c 0,142.1 114.9,256.3 256.3,256.3 141.3,0 256.3,-114.2 256.3,-256.3 0,-141.3 -115,-256.3 -256.3,-256.3 -141.4,0 -256.3,115 -256.3,256.3 z M 2313.87,11350.3 c 0,141.3 114.96,256.3 256.3,256.3 141.32,0 256.31,-115 256.31,-256.3 0,-142.1 -114.99,-256.3 -256.31,-256.3 -141.34,0 -256.3,114.2 -256.3,256.3 z M 15787.4,9865.91 c 0,142.09 114.9,256.29 256.3,256.29 141.3,0 256.3,-114.2 256.3,-256.29 0,-141.29 -115,-256.33 -256.3,-256.33 -141.4,0 -256.3,115.04 -256.3,256.33 z M 2313.87,9519.55 c 0,141.36 114.96,256.31 256.3,256.31 141.32,0 256.31,-114.95 256.31,-256.31 0,-142.06 -114.99,-256.31 -256.31,-256.31 -141.34,0 -256.3,114.25 -256.3,256.31 z M 15787.4,8035.14 c 0,142.06 114.9,256.31 256.3,256.31 141.3,0 256.3,-114.25 256.3,-256.31 0,-141.27 -115,-256.31 -256.3,-256.31 -141.4,0 -256.3,115.04 -256.3,256.31 z M 2313.87,7688.8 c 0,141.36 114.96,256.31 256.3,256.31 141.32,0 256.31,-114.95 256.31,-256.31 0,-142.06 -114.99,-256.3 -256.31,-256.3 -141.34,0 -256.3,114.24 -256.3,256.3 z M 15787.4,6204.39 c 0,142.06 114.9,256.31 256.3,256.31 141.3,0 256.3,-114.25 256.3,-256.31 0,-141.27 -115,-256.31 -256.3,-256.31 -141.4,0 -256.3,115.04 -256.3,256.31 z M 2313.87,5858.06 c 0,141.36 114.96,256.3 256.3,256.3 141.32,0 256.31,-114.94 256.31,-256.3 0,-142.07 -114.99,-256.31 -256.31,-256.31 -141.34,0 -256.3,114.24 -256.3,256.31 z M 15787.4,4373.64 c 0,142.07 114.9,256.31 256.3,256.31 141.3,0 256.3,-114.24 256.3,-256.31 0,-141.26 -115,-256.21 -256.3,-256.21 -141.4,0 -256.3,114.95 -256.3,256.21 z M 2313.87,4027.31 c 0,141.36 114.96,256.31 256.3,256.31 141.32,0 256.31,-114.95 256.31,-256.31 0,-142.06 -114.99,-256.31 -256.31,-256.31 -141.34,0 -256.3,114.25 -256.3,256.31 z m 658.31,-1172.38 c 0,141.27 115,256.3 256.31,256.3 141.34,0 256.3,-115.03 256.3,-256.3 0,-142.06 -114.96,-256.31 -256.3,-256.31 -141.31,0 -256.31,114.25 -256.31,256.31 z m 1830.74,0 c 0,141.27 114.99,256.3 256.31,256.3 141.34,0 256.3,-115.03 256.3,-256.3 0,-142.06 -114.96,-256.31 -256.3,-256.31 -141.32,0 -256.31,114.25 -256.31,256.31 z m 1830.74,0 c 0,141.27 114.99,256.3 256.31,256.3 141.34,0 256.3,-115.03 256.3,-256.3 0,-142.06 -114.96,-256.31 -256.3,-256.31 -141.32,0 -256.31,114.25 -256.31,256.31 z m 1830.75,0 c 0,141.27 114.99,256.3 256.29,256.3 141.37,0 256.31,-115.03 256.31,-256.3 0,-142.06 -114.94,-256.31 -256.31,-256.31 -141.3,0 -256.29,114.25 -256.29,256.31 z m 1830.69,0 c 0,141.27 115,256.3 256.4,256.3 141.3,0 256.3,-115.03 256.3,-256.3 0,-142.06 -115,-256.31 -256.3,-256.31 -141.4,0 -256.4,114.25 -256.4,256.31 z m 1830.8,0 c 0,141.27 114.9,256.3 256.3,256.3 141.4,0 256.3,-115.03 256.3,-256.3 0,-142.06 -114.9,-256.31 -256.3,-256.31 -141.4,0 -256.3,114.25 -256.3,256.31 z m 1830.7,0 c 0,141.27 115,256.3 256.3,256.3 141.4,0 256.4,-115.03 256.4,-256.3 0,-142.06 -115,-256.31 -256.4,-256.31 -141.3,0 -256.3,114.25 -256.3,256.31 z m 1830.8,0 c 0,141.27 114.9,256.3 256.3,256.3 141.3,0 256.3,-115.03 256.3,-256.3 0,-142.06 -115,-256.31 -256.3,-256.31 -141.4,0 -256.3,114.25 -256.3,256.31" /></g></g></g></svg>