<?xml version="1.0" encoding="UTF-8" standalone="no"?>
<svg
   xmlns:dc="http://purl.org/dc/elements/1.1/"
   xmlns:cc="http://creativecommons.org/ns#"
   xmlns:rdf="http://www.w3.org/1999/02/22-rdf-syntax-ns#"
   xmlns:svg="http://www.w3.org/2000/svg"
   xmlns="http://www.w3.org/2000/svg"
   viewBox="0 0 5288.48 5289.8267"
   height="5289.8267"
   width="5288.48"
   xml:space="preserve"
   id="svg2"
   version="1.1"><metadata
     id="metadata8"><rdf:RDF><cc:Work
         rdf:about=""><dc:format>image/svg+xml</dc:format><dc:type
           rdf:resource="http://purl.org/dc/dcmitype/StillImage" /></cc:Work></rdf:RDF></metadata><defs
     id="defs6" /><g
     transform="matrix(1.3333333,0,0,-1.3333333,0,5289.8267)"
     id="g10"><g
       transform="scale(0.1)"
       id="g12"><g
         transform="scale(2.43397)"
         id="g14"><path
           id="path16"
           style="fill:#f57733;fill-opacity:1;fill-rule:nonzero;stroke:none"
           d="M 16295.8,0 H 0 V 16300 H 16295.8 V 0" /></g><g
         transform="scale(2.43397)"
         id="g18"><path
           id="path20"
           style="fill:#f2582e;fill-opacity:1;fill-rule:nonzero;stroke:none"
           d="M 8216.33,8157.09 5770.66,16300 H 6926.09 L 8216.33,8157.09" /></g><g
         transform="scale(2.43397)"
         id="g22"><path
           id="path24"
           style="fill:#f2582e;fill-opacity:1;fill-rule:nonzero;stroke:none"
           d="M 8216.33,8157.09 772.816,16300 H 2574.15 L 8216.33,8157.09" /></g><g
         transform="scale(2.43397)"
         id="g26"><path
           id="path28"
           style="fill:#f2582e;fill-opacity:1;fill-rule:nonzero;stroke:none"
           d="m 8216.33,8157.09 v 0 L 7667.39,16300 H 8765.27 L 8216.33,8157.09" /></g><g
         transform="scale(2.43397)"
         id="g30"><path
           id="path32"
           style="fill:#f2582e;fill-opacity:1;fill-rule:nonzero;stroke:none"
           d="M 8216.33,8157.09 13859.1,16300 h 1801.7 L 8216.33,8157.09" /></g><g
         transform="scale(2.43397)"
         id="g34"><path
           id="path36"
           style="fill:#f2582e;fill-opacity:1;fill-rule:nonzero;stroke:none"
           d="M 8216.33,8157.09 11485,16300 h 1354.2 L 8216.33,8157.09" /></g><g
         transform="scale(1.22689)"
         id="g38"><path
           id="path40"
           style="fill:#f2582e;fill-opacity:1;fill-rule:nonzero;stroke:none"
           d="M 66.8898,1341.28 V 4933.37 L 16300,16182.5 66.8898,1341.28 M 16300,16182.5 v 0 m 0,0 v 0 m 0,0 v 0 m 0,0 v 0" /></g><g
         transform="scale(2.43397)"
         id="g42"><path
           id="path44"
           style="fill:#f2582e;fill-opacity:1;fill-rule:nonzero;stroke:none"
           d="M 8216.33,8157.09 9507.06,16300 H 10662.6 L 8216.33,8157.09" /></g><g
         transform="scale(1.22689)"
         id="g46"><path
           id="path48"
           style="fill:#f2582e;fill-opacity:1;fill-rule:nonzero;stroke:none"
           d="m 66.8898,11306.7 v 2303 L 16300,16182.5 66.8898,11306.7 M 16300,16182.5 v 0 m 0,0 v 0 m 0,0 v 0 m 0,0 v 0" /></g><g
         transform="scale(2.33514)"
         id="g50"><path
           id="path52"
           style="fill:#f2582e;fill-opacity:1;fill-rule:nonzero;stroke:none"
           d="M 8564.06,8502.31 35.1441,14412.9 V 16300 L 8564.06,8502.31" /></g><g
         transform="scale(1.30042)"
         id="g54"><path
           id="path56"
           style="fill:#f2582e;fill-opacity:1;fill-rule:nonzero;stroke:none"
           d="M 63.1074,14235.1 V 16300 L 15378.3,15267.4 63.1074,14235.1" /></g><g
         transform="scale(1.22689)"
         id="g58"><path
           id="path60"
           style="fill:#f2582e;fill-opacity:1;fill-rule:nonzero;stroke:none"
           d="M 66.8898,6967.38 V 9666.8 L 16300,16182.5 66.8898,6967.38 M 16300,16182.5 v 0 m 0,0 v 0" /></g><g
         transform="scale(1.58508)"
         id="g62"><path
           id="path64"
           style="fill:#f2582e;fill-opacity:1;fill-rule:nonzero;stroke:none"
           d="M 12616.6,12525.6 51.7743,14517.4 V 16300 L 12616.6,12525.6" /></g><g
         transform="scale(1.9117)"
         id="g66"><path
           id="path68"
           style="fill:#f2582e;fill-opacity:1;fill-rule:nonzero;stroke:none"
           d="M 10461,10385.6 42.9285,14567.1 V 16300 L 10461,10385.6" /></g><g
         transform="scale(2.43397)"
         id="g70"><path
           id="path72"
           style="fill:#f2582e;fill-opacity:1;fill-rule:nonzero;stroke:none"
           d="m 8216.33,8157.09 v 0 L 3593.51,16300 H 4947.76 L 8216.33,8157.09" /></g><g
         transform="scale(2.34048)"
         id="g74"><path
           id="path76"
           style="fill:#f2582e;fill-opacity:1;fill-rule:nonzero;stroke:none"
           d="M 16300,0 H 14423.1 L 8544.53,8482.93 16300,0 M 8544.53,8482.93 v 0" /></g><g
         transform="scale(1.30899)"
         id="g78"><path
           id="path80"
           style="fill:#f2582e;fill-opacity:1;fill-rule:nonzero;stroke:none"
           d="M 16300,0 H 14255.1 L 15277.6,15167.5 16300,0" /></g><g
         transform="scale(1.9184)"
         id="g82"><path
           id="path84"
           style="fill:#f2582e;fill-opacity:1;fill-rule:nonzero;stroke:none"
           d="M 16300,0 H 14578.8 L 10424.4,10349.3 16300,0 m -5875.6,10349.3 v 0 m 0,0 v 0 m 0,0 v 0 m 0,0 v 0" /></g><g
         transform="scale(1.5928)"
         id="g86"><path
           id="path88"
           style="fill:#f2582e;fill-opacity:1;fill-rule:nonzero;stroke:none"
           d="M 16300,0 H 14531.2 L 12555.4,12464.9 16300,0 m -3744.6,12464.9 v 0 m 0,0 v 0 m 0,0 v 0 m 0,0 v 0" /></g><g
         transform="scale(1.22689)"
         id="g90"><path
           id="path92"
           style="fill:#f2582e;fill-opacity:1;fill-rule:nonzero;stroke:none"
           d="M 13735.7,0 H 11439.5 L 16300,16182.5 13735.7,0" /></g><g
         transform="scale(1.22689)"
         id="g94"><path
           id="path96"
           style="fill:#f2582e;fill-opacity:1;fill-rule:nonzero;stroke:none"
           d="M 5087.18,0 H 1506.76 L 16300,16182.5 5087.18,0" /></g><g
         transform="scale(2.43335)"
         id="g98"><path
           id="path100"
           style="fill:#f2582e;fill-opacity:1;fill-rule:nonzero;stroke:none"
           d="M 8218.42,8159.17 16300,15547.3 v -1788 L 8218.42,8159.17" /></g><g
         transform="scale(1.22689)"
         id="g102"><path
           id="path104"
           style="fill:#f2582e;fill-opacity:1;fill-rule:nonzero;stroke:none"
           d="M 9804.06,0 H 7112.69 L 16300,16182.5 9804.06,0" /></g><g
         transform="scale(2.43335)"
         id="g106"><path
           id="path108"
           style="fill:#f2582e;fill-opacity:1;fill-rule:nonzero;stroke:none"
           d="M 8218.42,8159.17 16300,10586.7 V 9440.2 L 8218.42,8159.17" /></g><g
         transform="scale(2.43335)"
         id="g110"><path
           id="path112"
           style="fill:#f2582e;fill-opacity:1;fill-rule:nonzero;stroke:none"
           d="M 16300,7614.44 8218.42,8159.17 16300,8704.05 V 7614.44" /></g><g
         transform="scale(2.43335)"
         id="g114"><path
           id="path116"
           style="fill:#f2582e;fill-opacity:1;fill-rule:nonzero;stroke:none"
           d="M 16300,882.201 8218.42,8159.17 16300,2426.7 V 882.201 M 8218.42,8159.17 v 0 m 0,0 v 0" /></g><g
         transform="scale(2.43335)"
         id="g118"><path
           id="path120"
           style="fill:#f2582e;fill-opacity:1;fill-rule:nonzero;stroke:none"
           d="M 8218.42,8159.17 16300,12747.2 V 11403 L 8218.42,8159.17" /></g><g
         transform="scale(2.43335)"
         id="g122"><path
           id="path124"
           style="fill:#f2582e;fill-opacity:1;fill-rule:nonzero;stroke:none"
           d="M 16300,5731.73 8218.42,8159.17 16300,6878.34 V 5731.73" /></g><g
         transform="scale(2.43335)"
         id="g126"><path
           id="path128"
           style="fill:#f2582e;fill-opacity:1;fill-rule:nonzero;stroke:none"
           d="M 16300,3571.33 8218.42,8159.17 16300,4915.32 V 3571.33" /></g></g></g></svg>